HIERARCHY
ROOT Hips
{
	OFFSET 0.000000 0.000000 0.000000 
	CHANNELS 6 Xposition Yposition Zposition Zrotation Xrotation Yrotation
	JOINT Spine
	{
		OFFSET -0.000000 7.979263 0.000000 
		CHANNELS 3 Zrotation Xrotation Yrotation
		JOINT Spine1
		{
			OFFSET -0.000000 24.719021 0.000000 
			CHANNELS 3 Zrotation Xrotation Yrotation
			JOINT Neck
			{
				OFFSET -0.000000 24.617504 2.237955 
				CHANNELS 3 Zrotation Xrotation Yrotation
				JOINT Head
				{
					OFFSET -0.000000 13.623132 -1.946162 
					CHANNELS 3 Zrotation Xrotation Yrotation
					End Site
					{
						OFFSET -0.000000 24.327021 0.000000 
					}
				}
			}
			JOINT LeftShoulder
			{
				OFFSET 3.885773 23.018444 -0.302444 
				CHANNELS 3 Zrotation Xrotation Yrotation
				JOINT LeftArm
				{
					OFFSET 10.447750 0.000000 0.000000 
					CHANNELS 3 Zrotation Xrotation Yrotation
					JOINT LeftForeArm
					{
						OFFSET 29.090096 0.000000 0.000000 
						CHANNELS 3 Zrotation Xrotation Yrotation
						JOINT LeftHand
						{
							OFFSET 28.893339 0.000000 0.000000 
							CHANNELS 3 Zrotation Xrotation Yrotation
							End Site
							{
								OFFSET 14.596213 0.000000 0.000000 
							}
						}
					}
				}
			}
			JOINT RightShoulder
			{
				OFFSET -3.864586 23.018444 -0.302444 
				CHANNELS 3 Zrotation Xrotation Yrotation
				JOINT RightArm
				{
					OFFSET -10.447750 0.000000 0.000000 
					CHANNELS 3 Zrotation Xrotation Yrotation
					JOINT RightForeArm
					{
						OFFSET -29.090096 0.000000 0.000000 
						CHANNELS 3 Zrotation Xrotation Yrotation
						JOINT RightHand
						{
							OFFSET -28.893339 0.000000 0.000000 
							CHANNELS 3 Zrotation Xrotation Yrotation
							End Site
							{
								OFFSET -14.596213 0.000000 0.000000 
							}
						}
					}
				}
			}
		}
	}
	JOINT LeftUpLeg
	{
		OFFSET 9.730808 0.000000 0.000000 
		CHANNELS 3 Zrotation Xrotation Yrotation
		JOINT LeftLeg
		{
			OFFSET -0.000000 -34.800129 0.000000 
			CHANNELS 3 Zrotation Xrotation Yrotation
			JOINT LeftFoot
			{
				OFFSET -0.000000 -44.597416 0.000000 
				CHANNELS 3 Zrotation Xrotation Yrotation
				JOINT LeftToeBase
				{
					OFFSET -0.000000 -6.325025 14.596213 
					CHANNELS 3 Zrotation Xrotation Yrotation
					End Site
					{
						OFFSET -0.000000 0.000000 3.892323 
					}
				}
			}
		}
	}
	JOINT RightUpLeg
	{
		OFFSET -9.730808 0.000000 0.000000 
		CHANNELS 3 Zrotation Xrotation Yrotation
		JOINT RightLeg
		{
			OFFSET -0.000000 -34.800129 0.000000 
			CHANNELS 3 Zrotation Xrotation Yrotation
			JOINT RightFoot
			{
				OFFSET -0.000000 -44.597416 0.000000 
				CHANNELS 3 Zrotation Xrotation Yrotation
				JOINT RightToeBase
				{
					OFFSET -0.000000 -6.325025 14.596213 
					CHANNELS 3 Zrotation Xrotation Yrotation
					End Site
					{
						OFFSET -0.000000 0.000000 3.892323 
					}
				}
			}
		}
	}
}
MOTION
Frames: 15
Frame Time: 0.008333
-4.321721 83.665741 -11.016904 -18.993141 14.318792 73.971451 -0.977155 -1.564526 -0.039499 13.215956 -10.584943 1.203989 -7.059547 35.818111 -13.190473 45.665905 20.147135 -17.084284 10.775719 5.175858 -21.724680 21.352013 -13.449026 15.377373 22.647079 -21.895271 -32.832535 14.706256 -16.674732 -9.547806 -10.116876 8.924724 -1.658416 -9.690854 -2.149614 20.723688 -12.390466 -18.339350 10.594911 -38.254753 -19.097704 5.629580 4.579928 -15.862588 1.083321 -1.218197 12.171647 29.628220 -21.837940 1.944178 6.969225 0.000000 0.000000 0.000000 -25.179701 -49.245316 -29.464228 31.859341 50.749599 -48.992161 13.621786 -0.431678 11.690038 0.000000 0.000000 0.000000 
-4.048126 83.494743 -10.966592 -19.056789 15.581798 73.329300 -0.668337 -1.378658 0.135647 13.461226 -10.687301 1.408469 -7.640975 36.625458 -12.751535 45.992832 19.052378 -16.323030 10.224075 5.689962 -21.881664 21.777830 -13.058925 15.847054 22.769335 -22.322205 -31.958504 15.175107 -17.288141 -9.449636 -9.610879 9.274958 -0.888673 -9.854651 -1.785453 20.511862 -12.247500 -18.339344 10.807844 -38.171013 -19.054813 5.539842 3.338954 -16.169456 0.651936 -1.218673 12.549750 29.973104 -21.912344 1.561763 7.933962 0.000000 0.000000 0.000000 -26.160269 -49.726196 -30.501835 32.157814 51.187756 -49.270035 13.027401 -0.348003 11.326865 0.000000 0.000000 0.000000 
-3.761716 83.312515 -10.934711 -19.225185 16.921877 72.705154 -0.372355 -1.163645 0.429753 13.796749 -11.102160 1.781034 -7.739252 37.847176 -12.506831 45.915218 17.504589 -15.494058 9.684155 6.292998 -22.932138 22.538319 -13.110024 17.214657 22.314028 -22.033760 -31.778719 16.570383 -17.226128 -9.139131 -9.053592 9.791397 -0.252307 -9.984549 -1.182104 20.269384 -12.426472 -17.978966 10.746164 -37.866474 -18.564283 5.213847 2.062073 -16.548916 0.150408 -1.249189 12.832152 30.517902 -22.099127 1.208056 8.787289 0.000000 0.000000 0.000000 -27.212179 -50.380672 -31.705442 32.291458 51.840538 -49.438461 12.192944 -0.285275 11.007442 0.000000 0.000000 0.000000 
-3.487004 83.148315 -10.918484 -19.414038 18.265099 72.118996 -0.054374 -1.013383 0.727672 13.901939 -11.310748 2.111573 -7.178207 38.444202 -12.513637 45.489819 16.417374 -14.937728 10.066129 6.679677 -23.780823 22.569544 -13.181853 18.345057 21.989777 -21.472296 -31.447847 17.377037 -16.906534 -9.389607 -8.087904 10.653609 0.377271 -10.340856 -0.936098 19.784466 -12.457859 -17.988554 10.854197 -38.418606 -18.441280 4.775471 0.814653 -16.953329 -0.286802 -1.274372 13.012668 31.438700 -22.401861 1.196758 9.267369 0.000000 0.000000 0.000000 -28.228941 -51.045437 -32.729473 32.506584 52.341148 -49.583870 9.980329 -0.631247 10.614300 0.000000 0.000000 0.000000 
-3.266200 83.000320 -10.912011 -19.734814 19.618975 71.612022 0.499727 -0.578723 0.910776 13.893381 -12.209508 2.401485 -7.189068 40.024017 -12.117428 45.402596 14.801892 -13.942532 9.933532 7.604999 -24.631104 23.237457 -13.051177 19.679976 21.308207 -21.097225 -30.986624 18.424339 -16.916906 -9.585141 -7.131325 11.501613 1.459543 -10.631413 -0.425325 19.322004 -12.552419 -17.578663 10.632982 -38.497849 -18.071423 4.837842 -0.374923 -17.520597 -0.694223 -1.322338 13.146646 32.174015 -22.652264 1.231683 9.916780 0.000000 0.000000 0.000000 -29.119579 -51.922405 -33.861938 32.198196 52.902462 -49.504391 7.441854 -1.083431 10.392113 0.000000 0.000000 0.000000 
-2.952340 82.858208 -10.885421 -19.950626 21.069065 71.085434 1.059082 -0.247846 0.984706 13.994327 -12.542907 2.527986 -8.106757 40.576488 -11.455799 45.617752 13.977623 -13.155920 9.701835 8.502730 -24.231443 23.607883 -13.321481 20.106178 20.886677 -20.554846 -30.172523 19.203308 -16.728901 -9.783993 -6.963666 11.743715 2.557324 -10.200016 -0.009576 19.296535 -12.573335 -17.179407 10.458815 -38.358044 -17.684032 4.839448 -1.642735 -17.903778 -1.034578 -1.434126 13.128613 32.864025 -22.816994 1.372367 10.549194 0.000000 0.000000 0.000000 -30.145039 -52.668232 -34.923717 31.981327 53.396709 -49.328953 4.710190 -1.745769 10.066051 0.000000 0.000000 0.000000 
-2.637620 82.738495 -10.882938 -20.272490 22.687534 70.571663 1.596272 -0.039195 1.010947 14.174132 -12.716705 2.597869 -9.558491 41.072746 -10.619195 45.952129 13.095911 -12.298651 8.842954 8.715538 -23.745676 24.133801 -12.671032 20.573452 20.287546 -20.012365 -29.364500 19.824257 -16.590618 -10.107156 -7.192661 11.721507 3.874177 -9.483539 0.518687 19.382559 -12.101222 -17.900801 10.627845 -40.311165 -18.170874 3.850291 -2.996323 -18.343288 -1.380336 -1.593834 12.899897 33.601906 -23.113850 1.632176 11.170506 0.000000 0.000000 0.000000 -31.375090 -53.574886 -35.993004 31.594381 53.793900 -49.063366 2.758325 -2.242356 9.840037 0.000000 0.000000 0.000000 
-2.349396 82.627823 -10.868847 -20.683851 24.307211 70.142349 1.995624 0.270920 1.180608 14.555828 -13.185239 2.876610 -10.693178 41.791061 -9.977658 46.258255 11.859242 -11.451647 8.156638 8.915735 -23.983696 23.989431 -10.913233 21.436268 20.151873 -20.374893 -28.344276 20.038189 -17.164858 -9.904408 -7.282719 11.921226 4.607482 -8.880642 0.893498 19.753023 -12.280812 -16.825407 9.728177 -38.543629 -17.360027 4.597611 -4.338537 -18.846745 -1.340513 -1.588032 12.585839 34.164604 -23.349533 2.089989 11.520330 0.000000 0.000000 0.000000 -32.577332 -54.572449 -36.912411 31.281607 54.096107 -48.468697 1.520639 -3.044444 9.066432 0.000000 0.000000 0.000000 
-2.041247 82.571945 -10.893612 -21.184082 26.233742 69.752602 2.467545 0.623230 1.288900 14.669128 -13.692260 3.073021 -12.047256 42.441067 -9.280931 46.478439 10.559558 -10.590245 7.679300 9.256675 -23.225267 23.770164 -10.185928 21.641077 19.662607 -20.423782 -27.507885 20.129101 -17.499189 -9.950018 -7.417356 11.723818 6.064635 -8.162354 1.805909 19.550200 -12.274749 -16.569904 9.212937 -37.609764 -17.162107 4.729929 -5.934818 -19.397621 -1.368951 -1.638722 12.015355 34.748604 -23.571121 2.791105 12.014069 0.000000 0.000000 0.000000 -34.299339 -55.749775 -37.999619 30.862608 54.242199 -48.053421 0.179103 -3.855316 8.588317 0.000000 0.000000 0.000000 
-1.756083 82.560577 -10.879796 -21.787010 28.128677 69.354202 2.791513 0.938206 1.631459 15.052999 -14.071433 3.522727 -12.903495 42.627453 -9.018887 46.601082 9.365355 -10.050820 7.488976 9.487691 -23.085690 22.760635 -8.520854 22.278704 19.440245 -21.462404 -26.595621 20.390501 -18.675911 -9.290871 -7.629915 11.335176 6.930037 -7.277492 2.722335 19.568575 -12.204569 -16.906118 8.711536 -37.486107 -17.430861 4.366417 -7.367208 -19.877775 -1.144827 -1.673693 11.134005 35.772778 -23.795500 3.915032 11.973149 0.000000 0.000000 0.000000 -35.744446 -57.032948 -38.983425 29.936640 54.306252 -47.243195 -1.219600 -4.821285 7.998867 0.000000 0.000000 0.000000 
-1.420158 82.576714 -10.835157 -22.310242 30.008190 68.952187 3.004484 1.437099 2.105524 15.695446 -14.666143 4.175601 -13.655452 42.927906 -8.910499 46.601955 8.146737 -9.667217 7.275214 10.090564 -23.220568 22.195002 -8.154515 23.076635 18.381708 -22.391319 -26.310625 20.394720 -19.826765 -8.799713 -7.697836 11.081344 7.745413 -6.730448 3.463942 19.301853 -11.808239 -16.797991 8.262810 -37.438629 -17.116806 3.508536 -8.758623 -20.094221 -0.782055 -1.712599 9.978399 36.766029 -24.105415 5.267118 11.764367 0.000000 0.000000 0.000000 -37.115295 -58.114323 -39.968559 28.748396 54.336712 -45.921997 -2.495067 -5.889023 7.382427 0.000000 0.000000 0.000000 
-1.078878 82.648087 -10.775434 -22.919281 31.952591 68.633781 3.513685 1.851754 2.374838 16.240915 -14.786614 4.553057 -15.646884 42.592155 -8.247691 47.053970 7.334488 -9.077467 6.539944 9.801597 -22.555611 21.231876 -6.998387 23.435818 17.439800 -23.784847 -25.900669 20.690556 -21.435495 -8.191638 -8.073578 10.417882 9.252581 -6.019570 4.392898 18.927376 -11.598789 -16.603252 7.428625 -37.379681 -17.009647 3.487291 -10.195731 -20.323563 -0.167069 -1.563208 8.715292 37.752098 -24.404873 7.314736 11.071489 0.000000 0.000000 0.000000 -38.607780 -59.262211 -40.959335 27.585720 54.362415 -44.757202 -3.379040 -6.905132 6.730194 0.000000 0.000000 0.000000 
-0.707310 82.771255 -10.675183 -23.601612 33.831818 68.482841 4.135159 2.100312 2.747091 16.566744 -14.360259 4.924410 -16.823477 41.314644 -8.321720 47.179310 6.796210 -8.991173 6.387903 9.051981 -21.995838 19.766964 -6.033076 23.914759 16.572086 -25.252069 -25.682232 21.231121 -23.127819 -7.865031 -8.446607 9.633474 10.428170 -5.304242 4.699788 18.347816 -11.044714 -16.161736 6.843154 -37.942375 -16.458218 2.824969 -11.493481 -20.474367 0.360461 -1.428586 7.385041 38.617119 -24.665205 9.805667 10.129652 0.000000 0.000000 0.000000 -40.043827 -60.339596 -41.852444 26.299269 54.356064 -43.386360 -3.945330 -7.848245 6.047606 0.000000 0.000000 0.000000 
-0.349556 83.021843 -10.538878 -24.417385 35.936489 68.498383 4.465479 2.392338 3.388241 17.070019 -14.181731 5.620588 -17.379913 39.900940 -8.896219 46.916759 6.142620 -9.210829 6.516956 8.727522 -21.991140 18.353603 -5.960857 24.521906 16.007347 -25.764040 -25.316975 22.128487 -23.781387 -7.333846 -9.057073 8.348268 11.157920 -4.181273 5.715695 17.723471 -10.672748 -15.913548 6.142456 -38.645981 -16.085491 2.147741 -12.942810 -20.805817 0.749213 -1.206449 6.116704 39.410980 -25.660669 12.892534 9.294068 0.000000 0.000000 0.000000 -41.759239 -61.549427 -42.653584 24.791622 54.173145 -41.744694 -4.054753 -8.376992 5.314663 0.000000 0.000000 0.000000 
-0.018373 83.288506 -10.323223 -25.391829 37.801388 68.863495 5.250391 2.865582 3.797724 17.359377 -14.109859 6.093872 -18.569912 38.260162 -9.211780 46.865639 5.610774 -9.275331 6.355052 8.124621 -21.386011 16.485729 -4.973670 24.775383 16.518223 -25.809828 -24.368713 23.931187 -23.755711 -6.268855 -9.387410 7.973286 12.085404 -3.800612 5.600192 17.172276 -10.046318 -15.748523 5.295864 -39.023663 -15.766139 1.366154 -13.928169 -21.138790 0.729544 -1.203426 4.980906 39.657959 -26.914898 16.071991 8.974065 0.000000 0.000000 0.000000 -43.141171 -62.633228 -43.184395 23.028883 53.810371 -40.115120 -3.825300 -8.800075 4.893879 0.000000 0.000000 0.000000 
